<svg width="464" height="560" viewBox="0 0 464 560" fill="none" xmlns="http://www.w3.org/2000/svg">
<path d="M171.605 180.646C156.667 180.646 144.507 192.802 144.507 207.744C144.507 222.682 156.663 234.842 171.605 234.842C186.543 234.842 198.703 222.686 198.703 207.744C198.699 192.803 186.543 180.646 171.605 180.646ZM171.605 216.775C166.628 216.775 162.574 212.728 162.574 207.744C162.574 202.759 166.628 198.712 171.605 198.712C176.582 198.712 180.636 202.759 180.636 207.744C180.636 212.728 176.581 216.775 171.605 216.775Z" fill="#343F56"/>
<path d="M279.985 180.646C265.047 180.646 252.887 192.802 252.887 207.744C252.887 222.682 265.043 234.842 279.985 234.842C294.923 234.842 307.083 222.686 307.083 207.744C307.079 192.803 294.923 180.646 279.985 180.646ZM279.985 216.775C275.008 216.775 270.954 212.728 270.954 207.744C270.954 202.759 275.008 198.712 279.985 198.712C284.961 198.712 289.016 202.759 289.016 207.744C289.016 212.728 284.961 216.775 279.985 216.775Z" fill="#343F56"/>
<path d="M270.955 108.396H289.021V126.462H270.955V108.396Z" fill="#343F56"/>
<path d="M198.695 126.456H252.89V108.39H198.695C188.734 108.39 180.629 100.288 180.629 90.3239H162.563C162.567 110.25 178.77 126.457 198.696 126.457L198.695 126.456Z" fill="#343F56"/>
<path d="M426.575 185.596L463.805 83.1958L409.973 74.227L427.297 30.918L408.43 23.836C366.25 8.02 322.02 0 276.97 0C242.161 0 207.556 4.8516 174.12 14.406L109.972 32.734C99.16 35.8238 91.492 45.386 90.507 56.445L53.812 67.453C21.628 77.1171 0 106.183 0 139.793C0 143.352 0.253905 146.945 0.757805 150.477L7.8828 200.379C2.92581 207.625 7.62939e-06 216.375 7.62939e-06 225.805C7.62939e-06 250.707 20.258 270.965 45.16 270.965H54.1912V305.106C54.1912 348.743 79.0112 387.633 117.3 406.346C88.5702 435.065 72.2572 473.795 72.2572 514.836V523.867H90.3232C90.3232 543.793 106.526 559.996 126.452 559.996H325.162C345.088 559.996 361.291 543.793 361.291 523.867H379.357V514.836C379.357 473.793 363.045 435.063 334.314 406.356C372.595 387.629 397.416 348.739 397.416 305.106V270.965H406.447C431.349 270.965 451.607 250.707 451.607 225.805C451.611 208.172 441.349 193.024 426.58 185.59L426.575 185.596ZM59.005 84.7558L90.317 75.3613V90.3223H108.383V58.7873C108.383 54.7756 111.074 51.2014 114.942 50.1076L179.09 31.7796C210.906 22.678 243.84 18.0646 276.969 18.0646C319.844 18.0646 361.946 25.6974 402.079 40.7526L403.661 41.3385L384.856 88.3545L439.403 97.4483L409.055 180.905C408.168 180.862 407.336 180.644 406.441 180.644H391.222C381.05 159.32 359.339 144.515 334.183 144.515H198.703C168.816 144.515 144.508 120.21 144.508 90.3196H126.442C126.442 103.488 130.036 115.808 136.216 126.449L135.477 126.453C118.704 126.453 104.207 135.757 96.4224 149.367C82.7934 156.781 71.9384 167.656 64.6374 180.644H45.1574C37.509 180.644 30.4074 182.729 24.0954 186.101L18.6384 147.913C18.2517 145.217 18.0603 142.483 18.0603 139.791C18.0603 114.221 34.5173 92.1004 59.0053 84.7564L59.005 84.7558ZM272.095 294.666L277.298 273.838C286.583 277.224 294.458 283.467 299.771 291.631L280.001 301.514C277.696 298.877 275.067 296.545 272.095 294.666L272.095 294.666ZM254.837 289.228C254.185 289.193 253.564 289.029 252.903 289.029H234.837V270.963H259.396L254.837 289.228ZM216.775 289.029H198.709C198.049 289.029 197.428 289.193 196.775 289.228L192.217 270.966H216.776L216.775 289.029ZM174.314 273.838L179.517 294.666C176.537 296.545 173.915 298.865 171.615 301.514L151.842 291.631C157.143 283.467 165.03 277.225 174.315 273.838L174.314 273.838ZM144.517 316.127C144.517 313.533 144.861 311.025 145.287 308.549L163.404 317.608C162.88 320.049 162.579 322.568 162.579 325.158V338.482C156.157 336.205 150.079 333.217 144.513 329.478L144.517 316.127ZM180.646 325.158C180.646 315.197 188.748 307.092 198.712 307.092H252.907C262.868 307.092 270.973 315.194 270.973 325.158V342.689C267.996 343.025 264.989 343.224 261.934 343.224H189.676C186.621 343.224 183.613 343.025 180.645 342.693L180.646 325.158ZM288.206 317.607L306.323 308.549C306.753 311.025 307.093 313.533 307.093 316.127V329.479C301.53 333.209 295.448 336.198 289.027 338.483L289.03 325.159C289.03 322.569 288.734 320.049 288.206 317.608L288.206 317.607ZM325.007 313.119C323.425 279.662 295.777 252.9 261.933 252.9H189.675C155.831 252.9 128.183 279.662 126.605 313.119C115.23 299.139 108.386 281.326 108.386 261.931V171.611C108.386 156.673 120.542 144.513 135.484 144.513H151.074C163.808 155.724 180.457 162.579 198.711 162.579H316.131C331.069 162.579 343.229 174.735 343.229 189.677V261.935C343.225 281.326 336.381 299.138 325.01 313.119H325.007ZM45.157 252.9C30.219 252.9 18.059 240.744 18.059 225.802C18.059 210.864 30.215 198.704 45.157 198.704H57.114C55.4148 204.919 54.5124 211.411 54.3328 218.059L41.1258 209.254L31.1098 224.285L54.1878 239.668V252.898L45.157 252.9ZM134.141 415.31C144.184 423.459 156.559 428.923 170.278 430.447L186.083 432.209C193.325 438.81 201.864 444.123 211.591 447.365L216.771 449.08V541.932H144.513V451.612H126.447V505.807H90.6147C92.9116 471.112 108.502 438.912 134.142 415.311L134.141 415.31ZM108.383 523.87H126.449V541.936C116.484 541.932 108.383 533.831 108.383 523.87ZM325.153 541.932V523.866H343.219C343.215 533.831 335.113 541.932 325.153 541.932ZM360.985 505.803H325.153V451.608H307.087V541.932H234.829V449.08L240.005 447.354C249.731 444.111 258.267 438.791 265.513 432.198L281.318 430.436C295.037 428.909 307.412 423.455 317.455 415.299C343.1 438.912 358.689 471.111 360.986 505.803L360.985 505.803ZM379.344 305.103C379.344 336.255 364.285 364.544 340.028 381.986C342.071 375.428 343.215 368.482 343.215 361.283H325.149C325.149 386.951 306.309 408.412 281.09 412.115C286.188 402.201 289.024 391.037 289.024 379.349H270.958C270.958 402.275 256.454 422.525 234.829 429.994V397.412H216.763V429.99C195.138 422.521 180.634 402.26 180.634 379.345H162.568C162.568 391.033 165.404 402.197 170.498 412.115C145.287 408.416 126.443 386.955 126.443 361.283H108.377C108.377 368.482 109.525 375.428 111.564 381.994C87.3063 364.545 72.2523 336.256 72.2523 305.103V220.236C72.2523 203.381 78.9437 187.818 90.3183 176.287L90.3144 261.928C90.3144 316.709 134.888 361.283 189.669 361.283H261.927C316.708 361.283 361.282 316.709 361.282 261.928V189.67C361.282 181.877 359.114 174.639 355.618 168.236C369.673 175.896 379.345 190.631 379.345 207.736L379.344 305.103ZM406.442 252.896H397.411V239.666L420.489 224.283L410.473 209.252L397.411 217.959V207.736C397.411 204.666 397.114 201.666 396.688 198.705H406.442C421.38 198.705 433.54 210.861 433.54 225.803C433.54 240.741 421.384 252.897 406.442 252.897L406.442 252.896Z" fill="#343F56"/>
<path d="M252.895 469.686H270.961V487.752H252.895V469.686Z" fill="#343F56"/>
<path d="M252.895 505.806H270.961V523.872H252.895V505.806Z" fill="#343F56"/>
</svg>
