<svg width="561" height="561" viewBox="0 0 561 561" fill="none" xmlns="http://www.w3.org/2000/svg">
<path d="M559.997 103.316C559.997 99.9371 559.582 96.5777 558.77 93.3277L539.954 18.0697H309.074L304.558 36.1357L216.773 36.1318C191.32 36.1318 167.015 23.9758 151.742 3.6158C150.305 1.7017 148.164 0.428297 145.789 0.0923968C143.422 -0.251353 141.012 0.373647 139.098 1.8072L132.758 6.5572C120.184 15.9869 109.817 28.1002 102.094 41.7642C90.4141 34.2798 80.6681 23.7292 74.1641 10.7132L71.3086 4.9984C69.9102 2.1976 67.1524 0.318697 64.0391 0.0413968C60.8946 -0.212513 57.8711 1.1117 56 3.6156L20.773 50.5846C7.37799 68.4476 0 90.5766 0 112.905C0 147.78 17.332 178.624 43.77 197.464C38.813 207.601 36.1294 218.691 36.1294 230.073V265.499C36.1294 285.019 30.4106 303.913 19.5824 320.151L15.473 326.311L36.129 346.967V403.471C36.129 439.983 65.828 469.678 102.336 469.678C107.004 469.678 111.668 469.182 116.211 468.205L180.645 454.404V483.228L180.446 483.38C158.192 500.071 139.856 522.048 127.407 546.931L120.872 560.001H325.162V541.935C325.162 518.388 310.053 498.365 289.033 490.904V429.17L326.654 402.299L339.716 519.829C342.259 542.735 361.552 560.005 384.595 560.005H464.439C487.482 560.005 506.783 542.735 509.322 519.829L542.127 224.559L510.115 144.524H518.794C541.521 144.524 560.001 126.044 560.001 103.321L559.997 103.316ZM541.931 103.316C541.931 116.078 531.556 126.457 518.79 126.457H330.24C317.478 126.457 307.099 116.078 307.099 103.316C307.099 101.429 307.333 99.5387 307.794 97.7066L318.978 52.9796L337.646 90.3276H511.396L530.064 52.9796L541.248 97.7176C541.705 99.5379 541.939 101.425 541.939 103.315L541.931 103.316ZM505.802 36.132H518.286L505.802 61.097V36.132ZM487.74 72.261H469.674V36.132H487.74V72.261ZM451.611 72.261H433.545V36.132H451.611V72.261ZM415.482 72.261H397.416V36.132H415.482V72.261ZM379.353 72.261H361.287V36.132H379.353V72.261ZM343.224 61.097L330.74 36.132H343.224V61.097ZM307.095 541.937H234.837C234.837 522.011 251.04 505.808 270.966 505.808C290.892 505.808 307.095 522.015 307.095 541.937V541.937ZM216.771 541.937H150.88C161.474 524.921 175.247 509.855 191.282 497.832L198.707 492.262V450.532L236.723 442.383L232.938 424.715L112.398 450.547C109.109 451.254 105.715 451.618 102.328 451.618C76.8052 451.618 56.0662 431.595 54.4922 406.458H90.3162C110.242 406.458 126.445 390.255 126.445 370.329H108.379C108.379 380.29 100.278 388.395 90.3132 388.395L54.1882 388.391V339.489L38.5432 323.844C48.7932 306.125 54.1882 286.102 54.1882 265.508V230.082C54.1882 221.925 55.9421 213.941 59.3093 206.605C72.8363 213.058 87.9033 216.777 103.864 216.777H153.54C183.427 216.777 207.735 241.082 207.735 270.972C207.735 274.105 209.352 277.007 212.016 278.659C214.681 280.312 218.013 280.448 220.806 279.058L231.158 273.882C234.951 271.983 239.205 270.983 243.451 270.983C258.623 270.972 270.963 283.307 270.963 298.475C270.963 316.459 260.178 332.401 243.479 339.077L231.483 343.874C228.049 345.253 225.799 348.566 225.799 352.261C225.799 383.277 242.319 412.452 268.908 428.402L270.963 429.633V487.746C241.072 487.746 216.768 512.051 216.768 541.937L216.771 541.937ZM279.564 413.727L278.2 412.915C258.743 401.247 246.063 380.688 244.122 358.278L250.185 355.848C273.779 346.41 289.025 323.891 289.025 298.477C289.029 273.348 268.591 252.907 243.463 252.907C236.924 252.907 230.385 254.344 224.459 257.051C217.955 223.852 188.639 198.715 153.545 198.715H103.869C56.5568 198.715 18.0638 160.219 18.0638 112.906C18.0638 94.4613 24.1615 76.1793 35.2238 61.4223L61.9038 25.8523C79.3808 54.6683 110.353 72.2623 144.513 72.2623V54.2003C135.392 54.2003 126.611 52.4855 118.345 49.5831C124.677 38.7161 133.021 29.0631 143.048 21.4381C161.747 42.0941 188.7 54.2001 216.771 54.2001H300.041L290.26 93.3291C289.447 96.5791 289.029 99.9463 289.029 103.317C289.029 126.04 307.509 144.52 330.236 144.52H338.916L306.904 224.555L324.365 381.725L279.564 413.727ZM491.364 517.837C489.828 531.575 478.259 541.935 464.43 541.935H384.586C370.758 541.935 359.18 531.576 357.652 517.837L326.211 234.837H522.811L491.364 517.837ZM519.555 216.777H329.465L358.367 144.519H490.647L519.555 216.777Z" fill="#F4ECDE"/>
<path d="M351.396 270.976L368.865 463.106C370.139 477.153 381.748 487.747 395.853 487.747H453.181C467.29 487.747 478.896 477.153 480.169 463.099L497.63 270.979L351.396 270.976ZM477.846 289.038L476.202 307.104H372.822L371.177 289.038H477.846ZM462.166 461.468C461.752 466.156 457.877 469.687 453.17 469.687H395.842C391.135 469.687 387.272 466.156 386.846 461.476L374.463 325.176H474.553L462.166 461.468Z" fill="#F4ECDE"/>
<path d="M415.477 433.556H433.543V451.622H415.477V433.556Z" fill="#F4ECDE"/>
<path d="M415.477 397.426H433.543V415.492H415.477V397.426Z" fill="#F4ECDE"/>
<path d="M415.477 361.296H433.543V379.362H415.477V361.296Z" fill="#F4ECDE"/>
<path d="M99.3566 252.906C84.4186 252.906 72.2585 265.062 72.2585 280.004C72.2585 294.942 84.4146 307.102 99.3566 307.102C114.295 307.102 126.455 294.946 126.455 280.004C126.455 265.066 114.295 252.906 99.3566 252.906V252.906ZM99.3566 289.035C94.38 289.035 90.3253 284.98 90.3253 280.004C90.3253 275.027 94.3801 270.973 99.3566 270.973C104.333 270.973 108.388 275.027 108.388 280.004C108.388 284.98 104.333 289.035 99.3566 289.035Z" fill="#F4ECDE"/>
</svg>
