<svg width="561" height="560" viewBox="0 0 561 560" fill="none" xmlns="http://www.w3.org/2000/svg">
<path d="M252.902 189.681C252.902 174.743 240.746 162.583 225.804 162.583C210.866 162.583 198.706 174.739 198.706 189.681C198.706 204.619 210.862 216.779 225.804 216.779C240.745 216.779 252.902 204.623 252.902 189.681ZM216.773 189.681C216.773 184.705 220.828 180.65 225.804 180.65C230.781 180.65 234.835 184.705 234.835 189.681C234.835 194.658 230.781 198.712 225.804 198.712C220.828 198.716 216.773 194.658 216.773 189.681Z" fill="#F4ECDE"/>
<path d="M334.202 216.771C349.14 216.771 361.3 204.615 361.3 189.673C361.3 174.735 349.144 162.575 334.202 162.575C319.264 162.575 307.104 174.731 307.104 189.673C307.104 204.614 319.26 216.771 334.202 216.771V216.771ZM334.202 180.642C339.179 180.642 343.233 184.697 343.233 189.673C343.233 194.65 339.179 198.705 334.202 198.705C329.225 198.705 325.171 194.65 325.171 189.673C325.167 184.697 329.222 180.642 334.202 180.642Z" fill="#F4ECDE"/>
<path d="M343.232 243.871V234.84H216.782V243.871C216.782 278.734 245.141 307.098 280.009 307.098C314.872 307.098 343.236 278.735 343.236 243.871H343.232ZM235.752 252.902H324.26C320.069 273.488 301.815 289.031 280.01 289.031C258.209 289.031 239.944 273.488 235.752 252.902V252.902Z" fill="#F4ECDE"/>
<path d="M216.772 523.871H343.222V433.547H216.772V523.871ZM234.838 451.613H325.162V505.808L234.838 505.804V451.613Z" fill="#F4ECDE"/>
<path d="M560.002 289.031H433.552V337.933L451.618 355.999V363.812L359.524 333.109C390.024 318.214 411.829 288.246 415.036 252.902H424.52C449.422 252.902 469.68 232.644 469.68 207.742C469.68 206.097 469.364 204.535 469.192 202.937L518.583 153.546L490.935 125.89L539.287 67.867L481.627 48.648L501.088 0H205.388C141.947 0 90.3281 51.621 90.3281 115.06C90.3281 129.755 93.1015 144.134 98.5547 157.79L105.219 174.454C96.1329 182.727 90.3278 194.516 90.3278 207.739C90.3278 232.641 110.586 252.899 135.488 252.899H144.98C148.187 288.243 169.992 318.219 200.492 333.106L72.262 375.848V361.286C82.2229 361.286 90.328 353.184 90.328 343.22V252.9C90.328 242.939 82.2264 234.834 72.262 234.834V225.803C72.262 210.865 60.106 198.705 45.164 198.705C30.226 198.705 18.066 210.861 18.066 225.803V234.834C8.1051 234.834 0 242.936 0 252.9V343.224C0 353.185 8.1016 361.29 18.066 361.29V442.579C18.066 457.517 30.222 469.677 45.164 469.677C57.293 469.677 67.465 461.611 70.906 450.603L180.646 434.927V559.997H379.356V434.927L451.614 445.251V460.642C451.614 475.58 463.77 487.74 478.712 487.74H487.743V559.998H505.809V487.74H514.84C529.778 487.74 541.938 475.584 541.938 460.642L541.934 355.992L560 337.926L560.002 289.031ZM523.873 433.551H469.678V352.262C469.678 347.286 473.733 343.231 478.709 343.231H514.838C519.815 343.231 523.869 347.286 523.869 352.262L523.873 433.551ZM296.283 370.328L325.158 351.07V389.574L296.283 370.328ZM263.713 370.328L234.838 389.582V351.078L263.713 370.328ZM279.998 359.469L255.639 343.231H304.369L279.998 359.469ZM279.998 381.184L304.357 397.422H255.627L279.998 381.184ZM424.518 234.844H415.487V180.649H424.518C439.456 180.649 451.616 192.805 451.616 207.747C451.616 222.685 439.46 234.845 424.518 234.845V234.844ZM108.388 207.746C108.388 192.808 120.544 180.648 135.486 180.648H144.517V234.843H135.486C120.545 234.843 108.388 222.683 108.388 207.745V207.746ZM144.517 155.098V162.587H135.486C130.384 162.587 125.552 163.626 120.97 165.196L115.333 151.098C110.72 139.578 108.388 127.457 108.388 115.067C108.388 61.5789 151.896 18.0709 205.384 18.0709H474.404L457.74 59.7349L508.467 76.6449L466.494 127.008L493.041 153.551L462.709 183.883C454.717 171.149 440.647 162.586 424.521 162.586H414.575C410.376 142 392.137 126.457 370.325 126.457H216.775C206.815 126.457 198.709 118.355 198.709 108.391C198.709 98.43 206.811 90.3249 216.775 90.3249V72.2629C196.849 72.2629 180.646 88.4659 180.646 108.392C180.646 108.825 180.764 109.232 180.771 109.665C160.052 114.443 144.517 132.95 144.517 155.099L144.517 155.098ZM162.583 243.875V155.098C162.583 141.106 172.681 129.473 185.966 126.989C192.298 137.45 203.677 144.52 216.775 144.52H370.325C385.263 144.52 397.423 156.676 397.423 171.618V243.876C397.423 288.692 360.95 325.165 316.134 325.165H243.876C199.06 325.165 162.587 288.692 162.587 243.876L162.583 243.875ZM119.36 379.205L130.524 423.85L113.626 426.26L103.212 384.584L119.36 379.205ZM86.016 390.314L95.6449 428.826L72.2579 432.17V394.904L86.016 390.314ZM18.067 325.162H36.133V343.228H18.067V325.162ZM36.129 307.1H18.067V289.034H36.133L36.129 307.1ZM54.195 289.034H72.269V307.1H54.195V289.034ZM54.195 343.229V325.163H72.269V343.229H54.195ZM72.257 270.971H54.195V252.905H72.261L72.257 270.971ZM36.128 225.807C36.128 220.831 40.1827 216.776 45.1592 216.776C50.1358 216.776 54.1904 220.831 54.1904 225.807V234.838L36.1284 234.842L36.128 225.807ZM36.128 252.905V270.971H18.066V252.905H36.128ZM45.1592 451.615C40.1826 451.615 36.128 447.56 36.128 442.584V361.295H54.194V442.584C54.194 447.561 50.1354 451.615 45.1588 451.615H45.1592ZM148.499 421.275L136.55 373.466L180.644 358.771V416.685L148.499 421.275ZM198.71 541.935V352.745L216.776 346.722L216.772 415.484H343.222V346.722L361.288 352.745L361.284 541.935H198.71ZM379.35 358.775L423.444 373.47L411.495 421.279L379.35 416.689V358.775ZM429.479 423.853L440.643 379.208L451.608 382.857V427.005L429.479 423.853ZM514.834 469.681H478.705C473.729 469.681 469.674 465.626 469.674 460.65V451.619H523.869V460.65C523.865 465.627 519.81 469.681 514.834 469.681H514.834ZM541.928 330.461L536.374 336.016C531.424 329.469 523.658 325.168 514.834 325.168H478.705C469.881 325.168 462.112 329.469 457.163 336.016L451.608 330.461V307.106H541.932L541.928 330.461Z" fill="#F4ECDE"/>
<path d="M487.742 397.421H505.808V415.487H487.742V397.421Z" fill="#F4ECDE"/>
<path d="M487.742 361.291H505.808V379.357H487.742V361.291Z" fill="#F4ECDE"/>
</svg>
